G75*
G70*
%OFA0B0*%
%FSLAX24Y24*%
%IPPOS*%
%LPD*%
%AMOC8*
5,1,8,0,0,1.08239X$1,22.5*
%
%ADD10C,0.0110*%
%ADD11C,0.0060*%
%ADD12C,0.0050*%
%ADD13C,0.0080*%
D10*
X001359Y005032D02*
X001556Y005032D01*
X001458Y005032D02*
X001458Y005623D01*
X001556Y005623D02*
X001359Y005623D01*
X001789Y005328D02*
X002183Y005328D01*
X001986Y005524D02*
X001986Y005131D01*
X008859Y005131D02*
X008958Y005032D01*
X009155Y005032D01*
X009253Y005131D01*
X009253Y005524D01*
X009155Y005623D01*
X008958Y005623D01*
X008859Y005524D01*
X008859Y005131D01*
X009504Y005328D02*
X009898Y005328D01*
X009701Y005524D02*
X009701Y005131D01*
D11*
X008172Y004991D02*
X007936Y004991D01*
X007936Y005464D02*
X008172Y005464D01*
X006672Y005464D02*
X006436Y005464D01*
X006436Y004991D02*
X006672Y004991D01*
X005041Y004346D02*
X005041Y004109D01*
X004568Y004109D02*
X004568Y004346D01*
X005994Y004046D02*
X006031Y004046D01*
X005994Y004046D02*
X005994Y003409D01*
X006031Y003409D01*
X006349Y003409D02*
X006386Y003409D01*
X006723Y003409D02*
X006760Y003409D01*
X007077Y003409D02*
X007114Y003409D01*
X007114Y004046D01*
X007077Y004046D01*
X006760Y004046D02*
X006349Y004046D01*
X005644Y003098D02*
X005644Y002757D01*
X005531Y002757D02*
X005758Y002757D01*
X005531Y002984D02*
X005644Y003098D01*
X005389Y002984D02*
X005276Y002757D01*
X005162Y002984D01*
X005021Y003041D02*
X004794Y002814D01*
X004851Y002757D01*
X004964Y002757D01*
X005021Y002814D01*
X005021Y003041D01*
X004964Y003098D01*
X004851Y003098D01*
X004794Y003041D01*
X004794Y002814D01*
X004653Y002928D02*
X004426Y002928D01*
X004596Y003098D01*
X004596Y002757D01*
X004284Y002814D02*
X004228Y002757D01*
X004114Y002757D01*
X004058Y002814D01*
X004058Y002928D01*
X004228Y002928D01*
X004284Y002871D01*
X004284Y002814D01*
X004171Y003041D02*
X004058Y002928D01*
X004171Y003041D02*
X004284Y003098D01*
X003803Y003098D02*
X003803Y002757D01*
X003916Y002757D02*
X003689Y002757D01*
X003548Y002928D02*
X003491Y002871D01*
X003321Y002871D01*
X003321Y002757D02*
X003321Y003098D01*
X003491Y003098D01*
X003548Y003041D01*
X003548Y002928D01*
X003689Y002984D02*
X003803Y003098D01*
X003179Y003041D02*
X003123Y003098D01*
X003009Y003098D01*
X002953Y003041D01*
X002953Y002814D01*
X003009Y002757D01*
X003123Y002757D01*
X003179Y002814D01*
X002811Y002757D02*
X002811Y003098D01*
X002698Y002984D01*
X002584Y003098D01*
X002584Y002757D01*
X008068Y003609D02*
X008068Y003846D01*
X008541Y003846D02*
X008541Y003609D01*
D12*
X006122Y003609D02*
X006124Y003621D01*
X006129Y003632D01*
X006138Y003641D01*
X006149Y003646D01*
X006161Y003648D01*
X006173Y003646D01*
X006184Y003641D01*
X006193Y003632D01*
X006198Y003621D01*
X006200Y003609D01*
X006198Y003597D01*
X006193Y003586D01*
X006184Y003577D01*
X006173Y003572D01*
X006161Y003570D01*
X006149Y003572D01*
X006138Y003577D01*
X006129Y003586D01*
X006124Y003597D01*
X006122Y003609D01*
X002708Y004227D02*
X002710Y004285D01*
X002716Y004342D01*
X002726Y004399D01*
X002739Y004455D01*
X002757Y004510D01*
X002778Y004564D01*
X002803Y004616D01*
X002831Y004667D01*
X002863Y004715D01*
X002898Y004761D01*
X002936Y004804D01*
X002977Y004845D01*
X003020Y004883D01*
X003066Y004918D01*
X003114Y004950D01*
X003165Y004978D01*
X003217Y005003D01*
X003271Y005024D01*
X003326Y005042D01*
X003382Y005055D01*
X003439Y005065D01*
X003496Y005071D01*
X003554Y005073D01*
X003612Y005071D01*
X003669Y005065D01*
X003726Y005055D01*
X003782Y005042D01*
X003837Y005024D01*
X003891Y005003D01*
X003943Y004978D01*
X003994Y004950D01*
X004042Y004918D01*
X004088Y004883D01*
X004131Y004845D01*
X004172Y004804D01*
X004210Y004761D01*
X004245Y004715D01*
X004277Y004667D01*
X004305Y004616D01*
X004330Y004564D01*
X004351Y004510D01*
X004369Y004455D01*
X004382Y004399D01*
X004392Y004342D01*
X004398Y004285D01*
X004400Y004227D01*
X004398Y004169D01*
X004392Y004112D01*
X004382Y004055D01*
X004369Y003999D01*
X004351Y003944D01*
X004330Y003890D01*
X004305Y003838D01*
X004277Y003787D01*
X004245Y003739D01*
X004210Y003693D01*
X004172Y003650D01*
X004131Y003609D01*
X004088Y003571D01*
X004042Y003536D01*
X003994Y003504D01*
X003943Y003476D01*
X003891Y003451D01*
X003837Y003430D01*
X003782Y003412D01*
X003726Y003399D01*
X003669Y003389D01*
X003612Y003383D01*
X003554Y003381D01*
X003496Y003383D01*
X003439Y003389D01*
X003382Y003399D01*
X003326Y003412D01*
X003271Y003430D01*
X003217Y003451D01*
X003165Y003476D01*
X003114Y003504D01*
X003066Y003536D01*
X003020Y003571D01*
X002977Y003609D01*
X002936Y003650D01*
X002898Y003693D01*
X002863Y003739D01*
X002831Y003787D01*
X002803Y003838D01*
X002778Y003890D01*
X002757Y003944D01*
X002739Y003999D01*
X002726Y004055D01*
X002716Y004112D01*
X002710Y004169D01*
X002708Y004227D01*
D13*
X001804Y002727D02*
X001304Y002727D01*
X001054Y002977D01*
X001054Y003477D01*
X001304Y003727D01*
X001054Y003977D01*
X001054Y004477D01*
X001304Y004727D01*
X001804Y004727D01*
X002054Y004477D01*
X002054Y003977D01*
X001804Y003727D01*
X002054Y003477D01*
X002054Y002977D01*
X001804Y002727D01*
X009054Y002977D02*
X009054Y003477D01*
X009304Y003727D01*
X009054Y003977D01*
X009054Y004477D01*
X009304Y004727D01*
X009804Y004727D01*
X010054Y004477D01*
X010054Y003977D01*
X009804Y003727D01*
X010054Y003477D01*
X010054Y002977D01*
X009804Y002727D01*
X009304Y002727D01*
X009054Y002977D01*
M02*
