G75*
G70*
%OFA0B0*%
%FSLAX24Y24*%
%IPPOS*%
%LPD*%
%AMOC8*
5,1,8,0,0,1.08239X$1,22.5*
%
%ADD10OC8,0.0740*%
%ADD11C,0.0436*%
%ADD12R,0.0436X0.0436*%
%ADD13R,0.0515X0.0515*%
%ADD14C,0.0515*%
%ADD15C,0.0100*%
D10*
X019601Y007601D03*
X020601Y007601D03*
X020501Y008601D03*
X019501Y008601D03*
X019601Y009601D03*
X020601Y009601D03*
D11*
X016601Y012601D03*
X016101Y012601D03*
X015601Y012601D03*
X015101Y012601D03*
X014601Y012601D03*
X014101Y012601D03*
X013601Y012601D03*
X013101Y012601D03*
X012601Y012601D03*
X012101Y012601D03*
X011601Y012601D03*
X011101Y012601D03*
X010601Y012601D03*
X010101Y012601D03*
X009601Y012601D03*
X009101Y012601D03*
X008601Y012601D03*
X008101Y012601D03*
X007601Y012601D03*
X007101Y012601D03*
X006601Y012601D03*
X006101Y012601D03*
X006101Y004601D03*
X006601Y004601D03*
X007101Y004601D03*
X007601Y004601D03*
X008101Y004601D03*
X008601Y004601D03*
X009101Y004601D03*
X009601Y004601D03*
X010101Y004601D03*
X010601Y004601D03*
X011101Y004601D03*
X011601Y004601D03*
X012101Y004601D03*
X012601Y004601D03*
X013101Y004601D03*
X013601Y004601D03*
X014101Y004601D03*
X014601Y004601D03*
X015101Y004601D03*
X015601Y004601D03*
X016101Y004601D03*
X016601Y004601D03*
X005601Y004601D03*
D12*
X005601Y012601D03*
D13*
X001101Y016101D03*
D14*
X001101Y001101D03*
X002101Y001101D03*
X003101Y001101D03*
X004101Y001101D03*
X005101Y001101D03*
X006101Y001101D03*
X007101Y001101D03*
X008101Y001101D03*
X009101Y001101D03*
X010101Y001101D03*
X011101Y001101D03*
X012101Y001101D03*
X013101Y001101D03*
X014101Y001101D03*
X015101Y001101D03*
X016101Y001101D03*
X017101Y001101D03*
X018101Y001101D03*
X019101Y001101D03*
X020101Y001101D03*
X021101Y001101D03*
X022101Y001101D03*
X023101Y001101D03*
X023101Y016101D03*
X022101Y016101D03*
X021101Y016101D03*
X020101Y016101D03*
X019101Y016101D03*
X018101Y016101D03*
X017101Y016101D03*
X016101Y016101D03*
X015101Y016101D03*
X014101Y016101D03*
X013101Y016101D03*
X012101Y016101D03*
X011101Y016101D03*
X010101Y016101D03*
X009101Y016101D03*
X008101Y016101D03*
X007101Y016101D03*
X006101Y016101D03*
X005101Y016101D03*
X004101Y016101D03*
X003101Y016101D03*
X002101Y016101D03*
D15*
X006101Y012601D02*
X006101Y004601D01*
X013101Y011601D02*
X016601Y011601D01*
X017601Y010601D01*
X019601Y010601D01*
X020601Y009601D01*
X020501Y008601D02*
X021101Y008601D01*
X021601Y008101D01*
X021601Y007101D01*
X020601Y006101D01*
X017101Y006101D01*
X016101Y005101D01*
X016101Y004601D01*
X013101Y011601D02*
X012601Y012101D01*
X012601Y012601D01*
M02*
