G75*
G70*
%OFA0B0*%
%FSLAX24Y24*%
%IPPOS*%
%LPD*%
%AMOC8*
5,1,8,0,0,1.08239X$1,22.5*
%
%ADD10C,0.0000*%
%ADD11OC8,0.0740*%
%ADD12C,0.0396*%
%ADD13C,0.0400*%
%ADD14R,0.0396X0.0396*%
%ADD15R,0.0475X0.0475*%
%ADD16C,0.0475*%
%ADD17C,0.0120*%
%ADD18C,0.0100*%
D10*
X000101Y000101D02*
X000101Y017097D01*
X024471Y017097D01*
X024471Y000101D01*
X000101Y000101D01*
D11*
X019601Y007601D03*
X020601Y007601D03*
X020501Y008601D03*
X019501Y008601D03*
X019601Y009601D03*
X020601Y009601D03*
D12*
X016601Y012601D03*
X016101Y012601D03*
X015601Y012601D03*
X015101Y012601D03*
X014601Y012601D03*
X014101Y012601D03*
X013601Y012601D03*
X013101Y012601D03*
X012601Y012601D03*
X012101Y012601D03*
X011601Y012601D03*
X011101Y012601D03*
X010601Y012601D03*
X010101Y012601D03*
X009601Y012601D03*
X009101Y012601D03*
X008601Y012601D03*
X008101Y012601D03*
X007601Y012601D03*
X007101Y012601D03*
X006601Y012601D03*
X006101Y012601D03*
X006101Y004601D03*
X006601Y004601D03*
X007101Y004601D03*
X007601Y004601D03*
X008101Y004601D03*
X008601Y004601D03*
X009601Y004601D03*
X010101Y004601D03*
X010601Y004601D03*
X011101Y004601D03*
X011601Y004601D03*
X012101Y004601D03*
X012601Y004601D03*
X013101Y004601D03*
X013601Y004601D03*
X014101Y004601D03*
X014601Y004601D03*
X015101Y004601D03*
X015601Y004601D03*
X016101Y004601D03*
X016601Y004601D03*
X005601Y004601D03*
D13*
X009101Y004601D03*
D14*
X005601Y012601D03*
D15*
X001101Y016101D03*
D16*
X002101Y016101D03*
X003101Y016101D03*
X004101Y016101D03*
X005101Y016101D03*
X006101Y016101D03*
X007101Y016101D03*
X008101Y016101D03*
X009101Y016101D03*
X010101Y016101D03*
X011101Y016101D03*
X012101Y016101D03*
X013101Y016101D03*
X014101Y016101D03*
X015101Y016101D03*
X016101Y016101D03*
X017101Y016101D03*
X018101Y016101D03*
X019101Y016101D03*
X020101Y016101D03*
X021101Y016101D03*
X022101Y016101D03*
X023101Y016101D03*
X023101Y001101D03*
X022101Y001101D03*
X021101Y001101D03*
X020101Y001101D03*
X019101Y001101D03*
X018101Y001101D03*
X017101Y001101D03*
X016101Y001101D03*
X015101Y001101D03*
X014101Y001101D03*
X013101Y001101D03*
X012101Y001101D03*
X011101Y001101D03*
X010101Y001101D03*
X009101Y001101D03*
X008101Y001101D03*
X007101Y001101D03*
X006101Y001101D03*
X005101Y001101D03*
X004101Y001101D03*
X003101Y001101D03*
X002101Y001101D03*
X001101Y001101D03*
D17*
X002601Y002601D01*
X003601Y002601D01*
X005601Y004601D01*
X006101Y004601D02*
X006101Y004101D01*
X004101Y002101D01*
X003101Y002101D01*
X002101Y001101D01*
X003101Y001101D02*
X003601Y001601D01*
X004101Y001601D01*
X006601Y004101D01*
X006601Y004601D01*
X007101Y004601D02*
X007101Y004101D01*
X004101Y001101D01*
X005101Y001101D02*
X005101Y001601D01*
X007601Y004101D01*
X007601Y004601D01*
X008101Y004601D02*
X008101Y004101D01*
X006101Y002101D01*
X006101Y001101D01*
X007101Y001101D02*
X007101Y002601D01*
X008601Y004101D01*
X008601Y004601D01*
X009101Y004601D02*
X009101Y004101D01*
X008101Y003101D01*
X008101Y001101D01*
X009101Y001101D02*
X009101Y003601D01*
X009601Y004101D01*
X009601Y004601D01*
X010101Y004601D02*
X010101Y001101D01*
X011101Y001101D02*
X011101Y003601D01*
X010601Y004101D01*
X010601Y004601D01*
X011101Y004601D02*
X011101Y004101D01*
X012101Y003101D01*
X012101Y001101D01*
X013101Y001101D02*
X013101Y002601D01*
X011601Y004101D01*
X011601Y004601D01*
X012101Y004601D02*
X012101Y004101D01*
X014101Y002101D01*
X014101Y001101D01*
X015101Y001101D02*
X015101Y001601D01*
X012601Y004101D01*
X012601Y004601D01*
X013101Y004601D02*
X013101Y004101D01*
X016101Y001101D01*
X016101Y001601D02*
X016601Y001601D01*
X017101Y001101D01*
X017101Y002101D02*
X018101Y001101D01*
X019101Y001101D02*
X017601Y002601D01*
X016101Y002601D01*
X014601Y004101D01*
X014601Y004601D01*
X015101Y004601D02*
X015101Y004101D01*
X016101Y003101D01*
X018101Y003101D01*
X020101Y001101D01*
X021101Y001101D02*
X018601Y003601D01*
X016101Y003601D01*
X015601Y004101D01*
X015601Y004601D01*
X016101Y004601D02*
X016101Y004101D01*
X019101Y004101D01*
X022101Y001101D01*
X023101Y001101D02*
X019601Y004601D01*
X016601Y004601D01*
X014101Y004601D02*
X014101Y004101D01*
X016101Y002101D01*
X017101Y002101D01*
X016101Y001601D02*
X013601Y004101D01*
X013601Y004601D01*
X013601Y012601D02*
X013601Y013101D01*
X016101Y015601D01*
X016601Y015601D01*
X017101Y016101D01*
X017101Y015101D02*
X018101Y016101D01*
X019101Y016101D02*
X017601Y014601D01*
X016101Y014601D01*
X014601Y013101D01*
X014601Y012601D01*
X015101Y012601D02*
X015101Y013101D01*
X016101Y014101D01*
X018101Y014101D01*
X020101Y016101D01*
X021101Y016101D02*
X018601Y013601D01*
X016101Y013601D01*
X015601Y013101D01*
X015601Y012601D01*
X016101Y012601D02*
X016101Y013101D01*
X019101Y013101D01*
X022101Y016101D01*
X023101Y016101D02*
X019601Y012601D01*
X016601Y012601D01*
X014101Y012601D02*
X014101Y013101D01*
X016101Y015101D01*
X017101Y015101D01*
X016101Y016101D02*
X013101Y013101D01*
X013101Y012601D01*
X012601Y012601D02*
X012601Y013101D01*
X015101Y015601D01*
X015101Y016101D01*
X014101Y016101D02*
X014101Y015101D01*
X012101Y013101D01*
X012101Y012601D01*
X011601Y012601D02*
X011601Y013101D01*
X013101Y014601D01*
X013101Y016101D01*
X012101Y016101D02*
X012101Y014101D01*
X011101Y013101D01*
X011101Y012601D01*
X010601Y012601D02*
X010601Y013101D01*
X011101Y013601D01*
X011101Y016101D01*
X010101Y016101D02*
X010101Y012601D01*
X009601Y012601D02*
X009601Y013101D01*
X009101Y013601D01*
X009101Y016101D01*
X008101Y016101D02*
X008101Y014101D01*
X009101Y013101D01*
X009101Y012601D01*
X008601Y012601D02*
X008601Y013101D01*
X007101Y014601D01*
X007101Y016101D01*
X006101Y016101D02*
X006101Y015101D01*
X008101Y013101D01*
X008101Y012601D01*
X007601Y012601D02*
X007601Y013101D01*
X005101Y015601D01*
X005101Y016101D01*
X004101Y016101D02*
X007101Y013101D01*
X007101Y012601D01*
X006601Y012601D02*
X006601Y013101D01*
X004101Y015601D01*
X003601Y015601D01*
X003101Y016101D01*
X003101Y015101D02*
X002101Y016101D01*
X001101Y016101D02*
X002601Y014601D01*
X003601Y014601D01*
X005601Y012601D01*
X006101Y012601D02*
X006101Y013101D01*
X004101Y015101D01*
X003101Y015101D01*
D18*
X005601Y012601D02*
X005601Y010101D01*
X009601Y006101D01*
X015601Y006101D01*
X016601Y005101D01*
X016601Y004601D01*
X016101Y004601D02*
X016101Y005101D01*
X015601Y005601D01*
X006601Y005601D01*
X006101Y005101D01*
X006101Y004601D01*
X005601Y004601D01*
X011601Y007601D02*
X007601Y011601D01*
X007601Y012601D01*
X011601Y012601D02*
X011601Y010601D01*
X013601Y008601D01*
X019501Y008601D01*
X020501Y008601D02*
X021101Y008601D01*
X021601Y009101D01*
X021601Y010601D01*
X020601Y011601D01*
X017101Y011601D01*
X016101Y012601D01*
X016601Y012601D01*
X013601Y012601D02*
X013601Y011101D01*
X015101Y009601D01*
X019601Y009601D01*
X019601Y007601D02*
X011601Y007601D01*
M02*
