G75*
G70*
%OFA0B0*%
%FSLAX24Y24*%
%IPPOS*%
%LPD*%
%AMOC8*
5,1,8,0,0,1.08239X$1,22.5*
%
%ADD10C,0.0110*%
%ADD11C,0.0080*%
%ADD12C,0.0050*%
%ADD13C,0.0040*%
%ADD14C,0.0030*%
%ADD15C,0.0160*%
D10*
X001054Y001656D02*
X001447Y001656D01*
X001546Y001754D01*
X001546Y001951D01*
X001447Y002049D01*
X001251Y002049D01*
X001251Y001853D01*
X001054Y002049D02*
X000955Y001951D01*
X000955Y001754D01*
X001054Y001656D01*
X001955Y001754D02*
X002054Y001656D01*
X002447Y001656D01*
X002546Y001754D01*
X002546Y001951D01*
X002447Y002049D01*
X002251Y002049D01*
X002251Y001853D01*
X002054Y002049D02*
X001955Y001951D01*
X001955Y001754D01*
X001955Y002300D02*
X002546Y002694D01*
X001955Y002694D01*
X001546Y002694D02*
X000955Y002694D01*
X000955Y002945D02*
X000955Y003240D01*
X001054Y003339D01*
X001447Y003339D01*
X001546Y003240D01*
X001546Y002945D01*
X000955Y002945D01*
X001546Y002694D02*
X000955Y002300D01*
X001546Y002300D01*
X001955Y002300D02*
X002546Y002300D01*
X002955Y002300D02*
X002955Y002694D01*
X003251Y002497D02*
X003251Y002300D01*
X003546Y002300D02*
X002955Y002300D01*
X003054Y002049D02*
X003251Y002049D01*
X003349Y001951D01*
X003349Y001656D01*
X003546Y001656D02*
X002955Y001656D01*
X002955Y001951D01*
X003054Y002049D01*
X003955Y001951D02*
X003955Y001656D01*
X004546Y001656D01*
X004349Y001656D02*
X004349Y001951D01*
X004251Y002049D01*
X004054Y002049D01*
X003955Y001951D01*
X004349Y001853D02*
X004546Y002049D01*
X004447Y002300D02*
X004546Y002399D01*
X004546Y002596D01*
X004447Y002694D01*
X004349Y002694D01*
X004251Y002596D01*
X004251Y002399D01*
X004152Y002300D01*
X004054Y002300D01*
X003955Y002399D01*
X003955Y002596D01*
X004054Y002694D01*
X003955Y002945D02*
X003955Y003339D01*
X003955Y003142D02*
X004546Y003142D01*
X004955Y003339D02*
X005054Y003142D01*
X005251Y002945D01*
X005251Y003240D01*
X005349Y003339D01*
X005447Y003339D01*
X005546Y003240D01*
X005546Y003043D01*
X005447Y002945D01*
X005251Y002945D01*
X004955Y002694D02*
X004955Y002300D01*
X005546Y002300D01*
X005251Y002300D02*
X005251Y002497D01*
X005251Y002049D02*
X005054Y002049D01*
X004955Y001951D01*
X004955Y001656D01*
X005546Y001656D01*
X005349Y001656D02*
X005349Y001951D01*
X005251Y002049D01*
X005955Y001951D02*
X005955Y001656D01*
X006546Y001656D01*
X006349Y001656D02*
X006349Y001951D01*
X006251Y002049D01*
X006054Y002049D01*
X005955Y001951D01*
X005955Y002300D02*
X005955Y002694D01*
X006251Y002497D02*
X006251Y002300D01*
X006546Y002300D02*
X005955Y002300D01*
X006054Y002945D02*
X005955Y003043D01*
X005955Y003240D01*
X006054Y003339D01*
X006152Y003339D01*
X006546Y002945D01*
X006546Y003339D01*
X006955Y003339D02*
X006955Y002945D01*
X007251Y002945D01*
X007152Y003142D01*
X007152Y003240D01*
X007251Y003339D01*
X007447Y003339D01*
X007546Y003240D01*
X007546Y003043D01*
X007447Y002945D01*
X007955Y002945D02*
X007955Y003339D01*
X008054Y003339D01*
X008447Y002945D01*
X008546Y002945D01*
X008546Y002694D02*
X008546Y002300D01*
X007955Y002300D01*
X007955Y002694D01*
X008251Y002497D02*
X008251Y002300D01*
X008251Y002049D02*
X008054Y002049D01*
X007955Y001951D01*
X007955Y001656D01*
X008546Y001656D01*
X008349Y001656D02*
X008349Y001951D01*
X008251Y002049D01*
X008955Y001951D02*
X008955Y001656D01*
X009546Y001656D01*
X009349Y001656D02*
X009349Y001951D01*
X009251Y002049D01*
X009054Y002049D01*
X008955Y001951D01*
X008955Y002300D02*
X008955Y002694D01*
X009251Y002497D02*
X009251Y002300D01*
X009546Y002300D02*
X008955Y002300D01*
X009251Y002945D02*
X009251Y003339D01*
X009546Y003240D02*
X008955Y003240D01*
X009251Y002945D01*
X009955Y002694D02*
X009955Y002300D01*
X010546Y002300D01*
X010546Y002694D01*
X010251Y002497D02*
X010251Y002300D01*
X010251Y002049D02*
X010054Y002049D01*
X009955Y001951D01*
X009955Y001656D01*
X010546Y001656D01*
X010349Y001656D02*
X010349Y001951D01*
X010251Y002049D01*
X010955Y001951D02*
X010955Y001656D01*
X011546Y001656D01*
X011349Y001656D02*
X011349Y001951D01*
X011251Y002049D01*
X011054Y002049D01*
X010955Y001951D01*
X010955Y002300D02*
X010955Y002694D01*
X011251Y002497D02*
X011251Y002300D01*
X011546Y002300D02*
X010955Y002300D01*
X011152Y002945D02*
X010955Y003142D01*
X011546Y003142D01*
X011546Y002945D02*
X011546Y003339D01*
X011955Y003339D02*
X011955Y002945D01*
X012251Y002945D01*
X012152Y003142D01*
X012152Y003240D01*
X012251Y003339D01*
X012447Y003339D01*
X012546Y003240D01*
X012546Y003043D01*
X012447Y002945D01*
X012546Y002694D02*
X012546Y002300D01*
X011955Y002300D01*
X011955Y002694D01*
X012251Y002497D02*
X012251Y002300D01*
X012251Y002049D02*
X012349Y001951D01*
X012349Y001656D01*
X012546Y001656D02*
X011955Y001656D01*
X011955Y001951D01*
X012054Y002049D01*
X012251Y002049D01*
X012955Y001951D02*
X012955Y001656D01*
X013546Y001656D01*
X013349Y001656D02*
X013349Y001951D01*
X013251Y002049D01*
X013054Y002049D01*
X012955Y001951D01*
X012955Y002300D02*
X012955Y002694D01*
X013251Y002497D02*
X013251Y002300D01*
X013546Y002300D02*
X012955Y002300D01*
X013054Y002945D02*
X012955Y003043D01*
X012955Y003240D01*
X013054Y003339D01*
X013447Y002945D01*
X013546Y003043D01*
X013546Y003240D01*
X013447Y003339D01*
X013054Y003339D01*
X013054Y002945D02*
X013447Y002945D01*
X013955Y002694D02*
X013955Y002300D01*
X014546Y002300D01*
X014546Y002694D01*
X014955Y002596D02*
X014955Y002300D01*
X015546Y002300D01*
X015546Y002596D01*
X015447Y002694D01*
X015054Y002694D01*
X014955Y002596D01*
X015251Y002945D02*
X015251Y003339D01*
X015546Y003240D02*
X014955Y003240D01*
X015251Y002945D01*
X015955Y003043D02*
X015955Y003240D01*
X016054Y003339D01*
X016152Y003339D01*
X016251Y003240D01*
X016349Y003339D01*
X016447Y003339D01*
X016546Y003240D01*
X016546Y003043D01*
X016447Y002945D01*
X016251Y003142D02*
X016251Y003240D01*
X016054Y002945D02*
X015955Y003043D01*
X015955Y002694D02*
X015955Y002300D01*
X016546Y002300D01*
X016546Y002694D01*
X016251Y002497D02*
X016251Y002300D01*
X016251Y002049D02*
X016054Y002049D01*
X015955Y001951D01*
X015955Y001656D01*
X016546Y001656D01*
X016349Y001656D02*
X016349Y001951D01*
X016251Y002049D01*
X016955Y001951D02*
X016955Y001656D01*
X017546Y001656D01*
X017349Y001656D02*
X017349Y001951D01*
X017251Y002049D01*
X017054Y002049D01*
X016955Y001951D01*
X016955Y002300D02*
X017546Y002300D01*
X017546Y002694D01*
X017251Y002497D02*
X017251Y002300D01*
X016955Y002300D02*
X016955Y002694D01*
X017054Y002945D02*
X016955Y003043D01*
X016955Y003240D01*
X017054Y003339D01*
X017152Y003339D01*
X017546Y002945D01*
X017546Y003339D01*
X017955Y003339D02*
X018054Y003142D01*
X018251Y002945D01*
X018251Y003240D01*
X018349Y003339D01*
X018447Y003339D01*
X018546Y003240D01*
X018546Y003043D01*
X018447Y002945D01*
X018251Y002945D01*
X018447Y002694D02*
X018054Y002694D01*
X017955Y002596D01*
X017955Y002300D01*
X018546Y002300D01*
X018546Y002596D01*
X018447Y002694D01*
X018955Y002694D02*
X018955Y002300D01*
X019546Y002300D01*
X019546Y002694D01*
X019251Y002497D02*
X019251Y002300D01*
X019251Y002049D02*
X019054Y002049D01*
X018955Y001951D01*
X018955Y001656D01*
X019546Y001656D01*
X019349Y001656D02*
X019349Y001951D01*
X019251Y002049D01*
X019955Y001951D02*
X019955Y001656D01*
X020546Y001656D01*
X020349Y001656D02*
X020349Y001951D01*
X020251Y002049D01*
X020054Y002049D01*
X019955Y001951D01*
X019955Y002300D02*
X019955Y002596D01*
X020054Y002694D01*
X020447Y002694D01*
X020546Y002596D01*
X020546Y002300D01*
X019955Y002300D01*
X020054Y002945D02*
X019955Y003043D01*
X019955Y003240D01*
X020054Y003339D01*
X020152Y003339D01*
X020546Y002945D01*
X020546Y003339D01*
X020955Y003240D02*
X020955Y003043D01*
X021054Y002945D01*
X021447Y002945D01*
X021054Y003339D01*
X021447Y003339D01*
X021546Y003240D01*
X021546Y003043D01*
X021447Y002945D01*
X021546Y002694D02*
X021546Y002300D01*
X020955Y002300D01*
X020955Y002694D01*
X021251Y002497D02*
X021251Y002300D01*
X021251Y002049D02*
X021054Y002049D01*
X020955Y001951D01*
X020955Y001656D01*
X021546Y001656D01*
X021349Y001656D02*
X021349Y001951D01*
X021251Y002049D01*
X021955Y001951D02*
X021955Y001754D01*
X022054Y001656D01*
X022447Y001656D01*
X022546Y001754D01*
X022546Y001951D01*
X022447Y002049D01*
X022251Y002049D01*
X022251Y001853D01*
X022054Y002049D02*
X021955Y001951D01*
X021955Y002300D02*
X022546Y002694D01*
X021955Y002694D01*
X021955Y002945D02*
X021955Y003240D01*
X022054Y003339D01*
X022447Y003339D01*
X022546Y003240D01*
X022546Y002945D01*
X021955Y002945D01*
X021955Y002300D02*
X022546Y002300D01*
X022955Y002399D02*
X022955Y002596D01*
X023054Y002694D01*
X023054Y002945D02*
X023447Y002945D01*
X023546Y003043D01*
X023546Y003240D01*
X023447Y003339D01*
X023054Y003339D02*
X022955Y003240D01*
X022955Y003043D01*
X023054Y002945D01*
X023447Y002694D02*
X023546Y002596D01*
X023546Y002399D01*
X023447Y002300D01*
X023054Y002300D01*
X022955Y002399D01*
X022955Y002049D02*
X023349Y002049D01*
X023546Y001853D01*
X023349Y001656D01*
X022955Y001656D01*
X021054Y003339D02*
X020955Y003240D01*
X019546Y003339D02*
X019546Y002945D01*
X019546Y003142D02*
X018955Y003142D01*
X019152Y002945D01*
X018251Y002049D02*
X018054Y002049D01*
X017955Y001951D01*
X017955Y001656D01*
X018546Y001656D01*
X018349Y001656D02*
X018349Y001951D01*
X018251Y002049D01*
X015546Y001656D02*
X014955Y001656D01*
X014955Y001951D01*
X015054Y002049D01*
X015251Y002049D01*
X015349Y001951D01*
X015349Y001656D01*
X014546Y001656D02*
X013955Y001656D01*
X013955Y001951D01*
X014054Y002049D01*
X014251Y002049D01*
X014349Y001951D01*
X014349Y001656D01*
X014251Y002300D02*
X014251Y002497D01*
X014251Y002945D02*
X014251Y003339D01*
X014546Y003240D02*
X013955Y003240D01*
X014251Y002945D01*
X010546Y003043D02*
X010546Y003240D01*
X010447Y003339D01*
X010349Y003339D01*
X010251Y003240D01*
X010251Y002945D01*
X010447Y002945D01*
X010546Y003043D01*
X010251Y002945D02*
X010054Y003142D01*
X009955Y003339D01*
X007546Y002300D02*
X006955Y002300D01*
X006955Y002694D01*
X007251Y002497D02*
X007251Y002300D01*
X007251Y002049D02*
X007054Y002049D01*
X006955Y001951D01*
X006955Y001656D01*
X007546Y001656D01*
X007349Y001656D02*
X007349Y001951D01*
X007251Y002049D01*
X004546Y003688D02*
X004546Y003885D01*
X004447Y003983D01*
X004054Y003983D01*
X003955Y003885D01*
X003955Y003688D01*
X004054Y003589D01*
X004447Y003589D01*
X004546Y003688D01*
X003546Y002945D02*
X003447Y002945D01*
X003054Y003339D01*
X002955Y003339D01*
X002955Y002945D01*
X002546Y002945D02*
X002546Y003240D01*
X002447Y003339D01*
X002054Y003339D01*
X001955Y003240D01*
X001955Y002945D01*
X002546Y002945D01*
X002566Y010456D02*
X002861Y010456D01*
X002959Y010554D01*
X002861Y010653D01*
X002664Y010653D01*
X002566Y010751D01*
X002664Y010849D01*
X002959Y010849D01*
X003210Y010751D02*
X003309Y010849D01*
X003604Y010849D01*
X003604Y011046D02*
X003604Y010456D01*
X003309Y010456D01*
X003210Y010554D01*
X003210Y010751D01*
X003855Y010751D02*
X003855Y010554D01*
X003953Y010456D01*
X004150Y010456D01*
X004248Y010653D02*
X003855Y010653D01*
X003855Y010751D02*
X003953Y010849D01*
X004150Y010849D01*
X004248Y010751D01*
X004248Y010653D01*
X004499Y010849D02*
X004499Y010456D01*
X004893Y010456D02*
X004893Y010751D01*
X004794Y010849D01*
X004499Y010849D01*
X005144Y010357D02*
X005537Y010357D01*
X005788Y010456D02*
X006084Y010456D01*
X006182Y010554D01*
X006182Y010751D01*
X006084Y010849D01*
X005788Y010849D01*
X005788Y011046D02*
X005788Y010456D01*
X006433Y010554D02*
X006531Y010456D01*
X006728Y010456D01*
X006826Y010554D01*
X006826Y010751D01*
X006728Y010849D01*
X006531Y010849D01*
X006433Y010751D01*
X006433Y010554D01*
X007077Y010357D02*
X007471Y010357D01*
X007919Y010456D02*
X008116Y010849D01*
X008366Y010948D02*
X008465Y011046D01*
X008662Y011046D01*
X008760Y010948D01*
X008366Y010554D01*
X008465Y010456D01*
X008662Y010456D01*
X008760Y010554D01*
X008760Y010948D01*
X009011Y010948D02*
X009109Y011046D01*
X009306Y011046D01*
X009405Y010948D01*
X009405Y010849D01*
X009011Y010456D01*
X009405Y010456D01*
X008366Y010554D02*
X008366Y010948D01*
X007722Y010849D02*
X007919Y010456D01*
X003546Y013156D02*
X003152Y013156D01*
X002955Y013353D01*
X003152Y013549D01*
X003546Y013549D01*
X003251Y013549D02*
X003251Y013156D01*
X003955Y013656D02*
X003955Y013951D01*
X004054Y014049D01*
X004251Y014049D01*
X004349Y013951D01*
X004349Y013656D01*
X004546Y013656D02*
X003955Y013656D01*
X003546Y013800D02*
X002955Y013800D01*
X002955Y014096D01*
X003054Y014194D01*
X003251Y014194D01*
X003349Y014096D01*
X003349Y013800D01*
X003349Y013997D02*
X003546Y014194D01*
X003546Y014445D02*
X003546Y014839D01*
X003546Y015089D02*
X002955Y015089D01*
X002955Y015483D01*
X003251Y015286D02*
X003251Y015089D01*
X002955Y014839D02*
X002955Y014445D01*
X003546Y014445D01*
X003251Y014445D02*
X003251Y014642D01*
X003955Y014596D02*
X003955Y014399D01*
X004054Y014300D01*
X004447Y014300D01*
X004546Y014399D01*
X004546Y014596D01*
X004447Y014694D01*
X004251Y014694D01*
X004251Y014497D01*
X004054Y014694D02*
X003955Y014596D01*
X004152Y014945D02*
X003955Y015142D01*
X004546Y015142D01*
X004546Y014945D02*
X004546Y015339D01*
X004955Y015339D02*
X004955Y014945D01*
X005054Y014694D02*
X004955Y014596D01*
X004955Y014399D01*
X005054Y014300D01*
X005152Y014300D01*
X005251Y014399D01*
X005251Y014596D01*
X005349Y014694D01*
X005447Y014694D01*
X005546Y014596D01*
X005546Y014399D01*
X005447Y014300D01*
X005546Y014049D02*
X005349Y013853D01*
X005349Y013951D02*
X005349Y013656D01*
X005546Y013656D02*
X004955Y013656D01*
X004955Y013951D01*
X005054Y014049D01*
X005251Y014049D01*
X005349Y013951D01*
X005955Y013951D02*
X005955Y013656D01*
X006546Y013656D01*
X006349Y013656D02*
X006349Y013951D01*
X006251Y014049D01*
X006054Y014049D01*
X005955Y013951D01*
X006054Y014300D02*
X006447Y014300D01*
X006546Y014399D01*
X006546Y014596D01*
X006447Y014694D01*
X006251Y014694D01*
X006251Y014497D01*
X006054Y014300D02*
X005955Y014399D01*
X005955Y014596D01*
X006054Y014694D01*
X006054Y014945D02*
X005955Y015043D01*
X005955Y015240D01*
X006054Y015339D01*
X006152Y015339D01*
X006546Y014945D01*
X006546Y015339D01*
X006955Y015240D02*
X006955Y015043D01*
X007054Y014945D01*
X007447Y014945D01*
X007054Y015339D01*
X007447Y015339D01*
X007546Y015240D01*
X007546Y015043D01*
X007447Y014945D01*
X007447Y014694D02*
X007054Y014694D01*
X006955Y014596D01*
X006955Y014300D01*
X007546Y014300D01*
X007546Y014596D01*
X007447Y014694D01*
X007955Y014596D02*
X007955Y014399D01*
X008054Y014300D01*
X008447Y014300D01*
X008546Y014399D01*
X008546Y014596D01*
X008447Y014694D01*
X008251Y014694D01*
X008251Y014497D01*
X008054Y014694D02*
X007955Y014596D01*
X007955Y014945D02*
X008251Y014945D01*
X008152Y015142D01*
X008152Y015240D01*
X008251Y015339D01*
X008447Y015339D01*
X008546Y015240D01*
X008546Y015043D01*
X008447Y014945D01*
X007955Y014945D02*
X007955Y015339D01*
X007054Y015339D02*
X006955Y015240D01*
X005546Y015142D02*
X004955Y015142D01*
X006955Y013951D02*
X007054Y014049D01*
X007251Y014049D01*
X007349Y013951D01*
X007349Y013656D01*
X007546Y013656D02*
X006955Y013656D01*
X006955Y013951D01*
X007955Y013951D02*
X007955Y013656D01*
X008546Y013656D01*
X008349Y013656D02*
X008349Y013951D01*
X008251Y014049D01*
X008054Y014049D01*
X007955Y013951D01*
X008955Y013951D02*
X008955Y013656D01*
X009546Y013656D01*
X009349Y013656D02*
X009349Y013951D01*
X009251Y014049D01*
X009054Y014049D01*
X008955Y013951D01*
X008955Y014300D02*
X008955Y014596D01*
X009054Y014694D01*
X009447Y014694D01*
X009546Y014596D01*
X009546Y014300D01*
X008955Y014300D01*
X009152Y014945D02*
X008955Y015142D01*
X009546Y015142D01*
X009546Y014945D02*
X009546Y015339D01*
X009955Y015240D02*
X009955Y015043D01*
X010054Y014945D01*
X010054Y014694D02*
X009955Y014596D01*
X009955Y014300D01*
X010546Y014300D01*
X010546Y014596D01*
X010447Y014694D01*
X010054Y014694D01*
X010447Y014945D02*
X010546Y015043D01*
X010546Y015240D01*
X010447Y015339D01*
X010349Y015339D01*
X010251Y015240D01*
X010251Y015142D01*
X010251Y015240D02*
X010152Y015339D01*
X010054Y015339D01*
X009955Y015240D01*
X010955Y015339D02*
X010955Y014945D01*
X011054Y014694D02*
X010955Y014596D01*
X010955Y014300D01*
X011546Y014300D01*
X011546Y014596D01*
X011447Y014694D01*
X011054Y014694D01*
X011447Y014945D02*
X011546Y014945D01*
X011447Y014945D02*
X011054Y015339D01*
X010955Y015339D01*
X011955Y015339D02*
X011955Y014945D01*
X012251Y014945D01*
X012152Y015142D01*
X012152Y015240D01*
X012251Y015339D01*
X012447Y015339D01*
X012546Y015240D01*
X012546Y015043D01*
X012447Y014945D01*
X012447Y014694D02*
X012054Y014694D01*
X011955Y014596D01*
X011955Y014300D01*
X012546Y014300D01*
X012546Y014596D01*
X012447Y014694D01*
X012955Y014596D02*
X012955Y014300D01*
X013546Y014300D01*
X013546Y014596D01*
X013447Y014694D01*
X013349Y014694D01*
X013251Y014596D01*
X013251Y014300D01*
X013251Y014596D02*
X013152Y014694D01*
X013054Y014694D01*
X012955Y014596D01*
X013152Y014945D02*
X012955Y015142D01*
X013546Y015142D01*
X013546Y014945D02*
X013546Y015339D01*
X013955Y015339D02*
X014349Y014945D01*
X014251Y015043D02*
X014546Y015339D01*
X014955Y015240D02*
X014955Y015043D01*
X015054Y014945D01*
X015054Y014694D02*
X015152Y014694D01*
X015251Y014596D01*
X015251Y014300D01*
X015546Y014300D02*
X015546Y014596D01*
X015447Y014694D01*
X015349Y014694D01*
X015251Y014596D01*
X015054Y014694D02*
X014955Y014596D01*
X014955Y014300D01*
X015546Y014300D01*
X015955Y014300D02*
X015955Y014596D01*
X016054Y014694D01*
X016152Y014694D01*
X016251Y014596D01*
X016251Y014300D01*
X016546Y014300D02*
X016546Y014596D01*
X016447Y014694D01*
X016349Y014694D01*
X016251Y014596D01*
X016546Y014300D02*
X015955Y014300D01*
X016054Y014049D02*
X015955Y013951D01*
X015955Y013656D01*
X016546Y013656D01*
X016349Y013656D02*
X016349Y013951D01*
X016251Y014049D01*
X016054Y014049D01*
X015546Y013656D02*
X014955Y013656D01*
X014955Y013951D01*
X015054Y014049D01*
X015251Y014049D01*
X015349Y013951D01*
X015349Y013656D01*
X014546Y013754D02*
X014546Y013951D01*
X014447Y014049D01*
X014054Y014049D02*
X013955Y013951D01*
X013955Y013754D01*
X014054Y013656D01*
X014447Y013656D01*
X014546Y013754D01*
X014546Y014300D02*
X013955Y014300D01*
X013349Y013951D02*
X013349Y013656D01*
X013546Y013656D02*
X012955Y013656D01*
X012955Y013951D01*
X013054Y014049D01*
X013251Y014049D01*
X013349Y013951D01*
X012546Y013656D02*
X011955Y013656D01*
X011955Y013951D01*
X012054Y014049D01*
X012251Y014049D01*
X012349Y013951D01*
X012349Y013656D01*
X011546Y013656D02*
X010955Y013656D01*
X010955Y013951D01*
X011054Y014049D01*
X011251Y014049D01*
X011349Y013951D01*
X011349Y013656D01*
X010546Y013656D02*
X009955Y013656D01*
X009955Y013951D01*
X010054Y014049D01*
X010251Y014049D01*
X010349Y013951D01*
X010349Y013656D01*
X013955Y014945D02*
X014546Y014945D01*
X014546Y014694D02*
X014546Y014300D01*
X015546Y014945D02*
X015152Y015339D01*
X015054Y015339D01*
X014955Y015240D01*
X015546Y015339D02*
X015546Y014945D01*
X015955Y015043D02*
X015955Y015240D01*
X016054Y015339D01*
X016447Y014945D01*
X016546Y015043D01*
X016546Y015240D01*
X016447Y015339D01*
X016054Y015339D01*
X015955Y015043D02*
X016054Y014945D01*
X016447Y014945D01*
X016955Y015043D02*
X017054Y014945D01*
X016955Y015043D02*
X016955Y015240D01*
X017054Y015339D01*
X017152Y015339D01*
X017251Y015240D01*
X017349Y015339D01*
X017447Y015339D01*
X017546Y015240D01*
X017546Y015043D01*
X017447Y014945D01*
X017447Y014694D02*
X017349Y014694D01*
X017251Y014596D01*
X017251Y014300D01*
X017546Y014300D02*
X017546Y014596D01*
X017447Y014694D01*
X017251Y014596D02*
X017152Y014694D01*
X017054Y014694D01*
X016955Y014596D01*
X016955Y014300D01*
X017546Y014300D01*
X017251Y014049D02*
X017054Y014049D01*
X016955Y013951D01*
X016955Y013656D01*
X017546Y013656D01*
X017349Y013656D02*
X017349Y013951D01*
X017251Y014049D01*
X017955Y013951D02*
X017955Y013656D01*
X018546Y013656D01*
X018349Y013656D02*
X018349Y013951D01*
X018251Y014049D01*
X018054Y014049D01*
X017955Y013951D01*
X017955Y014300D02*
X017955Y014596D01*
X018054Y014694D01*
X018152Y014694D01*
X018251Y014596D01*
X018251Y014300D01*
X018546Y014300D02*
X018546Y014596D01*
X018447Y014694D01*
X018349Y014694D01*
X018251Y014596D01*
X018546Y014300D02*
X017955Y014300D01*
X018251Y014945D02*
X018251Y015240D01*
X018349Y015339D01*
X018447Y015339D01*
X018546Y015240D01*
X018546Y015043D01*
X018447Y014945D01*
X018251Y014945D01*
X018054Y015142D01*
X017955Y015339D01*
X017251Y015240D02*
X017251Y015142D01*
X018955Y015240D02*
X019251Y014945D01*
X019251Y015339D01*
X019546Y015240D02*
X018955Y015240D01*
X019054Y014694D02*
X019152Y014694D01*
X019251Y014596D01*
X019251Y014300D01*
X019546Y014300D02*
X019546Y014596D01*
X019447Y014694D01*
X019349Y014694D01*
X019251Y014596D01*
X019054Y014694D02*
X018955Y014596D01*
X018955Y014300D01*
X019546Y014300D01*
X019251Y014049D02*
X019054Y014049D01*
X018955Y013951D01*
X018955Y013656D01*
X019546Y013656D01*
X019349Y013656D02*
X019349Y013951D01*
X019251Y014049D01*
X019955Y013951D02*
X019955Y013656D01*
X020546Y013656D01*
X020349Y013656D02*
X020349Y013951D01*
X020251Y014049D01*
X020054Y014049D01*
X019955Y013951D01*
X019955Y014300D02*
X019955Y014596D01*
X020054Y014694D01*
X020152Y014694D01*
X020251Y014596D01*
X020251Y014300D01*
X020546Y014300D02*
X020546Y014596D01*
X020447Y014694D01*
X020349Y014694D01*
X020251Y014596D01*
X020546Y014300D02*
X019955Y014300D01*
X019955Y014945D02*
X019955Y015339D01*
X020054Y015339D01*
X020447Y014945D01*
X020546Y014945D01*
X020955Y014945D02*
X021251Y014945D01*
X021152Y015142D01*
X021152Y015240D01*
X021251Y015339D01*
X021447Y015339D01*
X021546Y015240D01*
X021546Y015043D01*
X021447Y014945D01*
X021447Y014694D02*
X021349Y014694D01*
X021251Y014596D01*
X021251Y014300D01*
X021546Y014300D02*
X021546Y014596D01*
X021447Y014694D01*
X021251Y014596D02*
X021152Y014694D01*
X021054Y014694D01*
X020955Y014596D01*
X020955Y014300D01*
X021546Y014300D01*
X021251Y014049D02*
X021054Y014049D01*
X020955Y013951D01*
X020955Y013656D01*
X021546Y013656D01*
X021349Y013656D02*
X021349Y013951D01*
X021251Y014049D01*
X021955Y013951D02*
X021955Y013754D01*
X022054Y013656D01*
X022447Y013656D01*
X022546Y013754D01*
X022546Y013951D01*
X022447Y014049D01*
X022251Y014049D01*
X022251Y013853D01*
X022054Y014049D02*
X021955Y013951D01*
X021955Y014300D02*
X022546Y014694D01*
X021955Y014694D01*
X021955Y014945D02*
X021955Y015240D01*
X022054Y015339D01*
X022447Y015339D01*
X022546Y015240D01*
X022546Y014945D01*
X021955Y014945D01*
X021955Y014300D02*
X022546Y014300D01*
X022955Y014300D02*
X023546Y014694D01*
X022955Y014694D01*
X022955Y014945D02*
X022955Y015240D01*
X023054Y015339D01*
X023447Y015339D01*
X023546Y015240D01*
X023546Y014945D01*
X022955Y014945D01*
X022955Y014300D02*
X023546Y014300D01*
X023447Y014049D02*
X023251Y014049D01*
X023251Y013853D01*
X023447Y014049D02*
X023546Y013951D01*
X023546Y013754D01*
X023447Y013656D01*
X023054Y013656D01*
X022955Y013754D01*
X022955Y013951D01*
X023054Y014049D01*
X020955Y014945D02*
X020955Y015339D01*
X002546Y015240D02*
X002546Y014945D01*
X001955Y014945D01*
X001955Y015240D01*
X002054Y015339D01*
X002447Y015339D01*
X002546Y015240D01*
X002546Y014694D02*
X001955Y014694D01*
X001546Y014596D02*
X001447Y014694D01*
X001546Y014596D02*
X001546Y014399D01*
X001447Y014300D01*
X001054Y014300D01*
X000955Y014399D01*
X000955Y014596D01*
X001054Y014694D01*
X001054Y014945D02*
X001447Y014945D01*
X001546Y015043D01*
X001546Y015240D01*
X001447Y015339D01*
X001054Y015339D02*
X000955Y015240D01*
X000955Y015043D01*
X001054Y014945D01*
X001955Y014300D02*
X002546Y014694D01*
X002546Y014300D02*
X001955Y014300D01*
X002054Y014049D02*
X001955Y013951D01*
X001955Y013754D01*
X002054Y013656D01*
X002447Y013656D01*
X002546Y013754D01*
X002546Y013951D01*
X002447Y014049D01*
X002251Y014049D01*
X002251Y013853D01*
X001546Y013853D02*
X001349Y014049D01*
X000955Y014049D01*
X000955Y013656D02*
X001349Y013656D01*
X001546Y013853D01*
X001133Y011046D02*
X001133Y010456D01*
X000838Y010456D01*
X000740Y010554D01*
X000740Y010751D01*
X000838Y010849D01*
X001133Y010849D01*
X001384Y010849D02*
X001384Y010456D01*
X001384Y010653D02*
X001581Y010849D01*
X001679Y010849D01*
X001921Y010751D02*
X002020Y010849D01*
X002216Y010849D01*
X002315Y010751D01*
X002315Y010653D01*
X001921Y010653D01*
X001921Y010751D02*
X001921Y010554D01*
X002020Y010456D01*
X002216Y010456D01*
D11*
X018969Y009851D02*
X018969Y009351D01*
X019101Y009351D02*
X019101Y009851D01*
X019351Y010101D01*
X020851Y010101D01*
X021101Y009851D01*
X021101Y009351D01*
X020851Y009101D01*
X019351Y009101D01*
X019101Y008851D01*
X019101Y008351D01*
X019351Y008101D01*
X020851Y008101D01*
X021101Y007851D01*
X021101Y007351D01*
X020851Y007101D01*
X019351Y007101D01*
X019101Y007351D01*
X019101Y007851D01*
X019351Y008101D01*
X019351Y009101D02*
X019101Y009351D01*
X020851Y009101D02*
X021101Y008851D01*
X021101Y008351D01*
X020851Y008101D01*
D12*
X016963Y004148D02*
X005152Y004148D01*
X005152Y013085D01*
X016963Y013085D01*
X016963Y004148D01*
D13*
X010417Y009621D02*
X010417Y009851D01*
X010341Y009928D01*
X010111Y009928D01*
X010111Y009621D01*
X009957Y009697D02*
X009957Y009928D01*
X009957Y009697D02*
X009880Y009621D01*
X009804Y009697D01*
X009727Y009621D01*
X009650Y009697D01*
X009650Y009928D01*
X009497Y009851D02*
X009497Y009697D01*
X009420Y009621D01*
X009266Y009621D01*
X009190Y009697D01*
X009190Y009851D01*
X009266Y009928D01*
X009420Y009928D01*
X009497Y009851D01*
X009036Y009928D02*
X008806Y009928D01*
X008729Y009851D01*
X008729Y009697D01*
X008806Y009621D01*
X009036Y009621D01*
X009036Y010081D01*
X008576Y009851D02*
X008576Y009774D01*
X008269Y009774D01*
X008269Y009697D02*
X008269Y009851D01*
X008346Y009928D01*
X008499Y009928D01*
X008576Y009851D01*
X008346Y009621D02*
X008269Y009697D01*
X008346Y009621D02*
X008499Y009621D01*
X008116Y009621D02*
X007885Y009621D01*
X007809Y009697D01*
X007809Y009851D01*
X007885Y009928D01*
X008116Y009928D01*
X008116Y010081D02*
X008116Y009621D01*
X007655Y009621D02*
X007502Y009621D01*
X007579Y009621D02*
X007579Y009928D01*
X007502Y009928D01*
X007348Y009928D02*
X007118Y009928D01*
X007041Y009851D01*
X007118Y009774D01*
X007272Y009774D01*
X007348Y009697D01*
X007272Y009621D01*
X007041Y009621D01*
X006888Y009697D02*
X006811Y009621D01*
X006581Y009621D01*
X006428Y009621D02*
X006428Y009928D01*
X006581Y009928D02*
X006811Y009928D01*
X006888Y009851D01*
X006888Y009697D01*
X006581Y009467D02*
X006581Y009928D01*
X006428Y009621D02*
X006197Y009621D01*
X006121Y009697D01*
X006121Y009928D01*
X007579Y010081D02*
X007579Y010158D01*
X005928Y011621D02*
X005621Y011621D01*
X005774Y011621D02*
X005774Y012081D01*
X005621Y011928D01*
D14*
X005819Y005522D02*
X005616Y005319D01*
X005886Y005319D01*
X006017Y005319D02*
X006220Y005319D01*
X006287Y005251D01*
X006287Y005183D01*
X006220Y005116D01*
X006084Y005116D01*
X006017Y005183D01*
X006017Y005319D01*
X006152Y005454D01*
X006287Y005522D01*
X005819Y005522D02*
X005819Y005116D01*
D15*
X014293Y006100D02*
X014293Y006407D01*
X015521Y006407D01*
X015521Y006714D02*
X015521Y006100D01*
X015214Y005793D01*
X014600Y005793D01*
X014293Y006100D01*
X014600Y007021D02*
X015214Y007021D01*
X015521Y006714D01*
M02*
