G75*
G70*
%OFA0B0*%
%FSLAX24Y24*%
%IPPOS*%
%LPD*%
%AMOC8*
5,1,8,0,0,1.08239X$1,22.5*
%
%ADD10OC8,0.0820*%
%ADD11C,0.0476*%
%ADD12R,0.0476X0.0476*%
%ADD13OC8,0.0740*%
%ADD14OC8,0.0560*%
%ADD15C,0.0552*%
%ADD16OC8,0.0840*%
D10*
X019122Y008284D03*
X020122Y008284D03*
X020222Y009284D03*
X019222Y009284D03*
X019222Y007284D03*
X020222Y007284D03*
D11*
X017722Y011284D03*
X017222Y011284D03*
X016722Y011284D03*
X016222Y011284D03*
X015722Y011284D03*
X015222Y011284D03*
X014722Y011284D03*
X014222Y011284D03*
X013722Y011284D03*
X013222Y011284D03*
X012722Y011284D03*
X012222Y011284D03*
X011722Y011284D03*
X011222Y011284D03*
X010722Y011284D03*
X010222Y011284D03*
X009722Y011284D03*
X009222Y011284D03*
X008722Y011284D03*
X008222Y011284D03*
X007722Y011284D03*
X007722Y003284D03*
X008222Y003284D03*
X008722Y003284D03*
X009222Y003284D03*
X009722Y003284D03*
X010222Y003284D03*
X010722Y003284D03*
X011222Y003284D03*
X011722Y003284D03*
X012222Y003284D03*
X012722Y003284D03*
X013222Y003284D03*
X013722Y003284D03*
X014222Y003284D03*
X014722Y003284D03*
X015222Y003284D03*
X015722Y003284D03*
X016222Y003284D03*
X016722Y003284D03*
X017222Y003284D03*
X017722Y003284D03*
X007222Y003284D03*
X006722Y003284D03*
D12*
X006722Y011284D03*
D13*
X021372Y007784D03*
X022222Y007784D03*
X023072Y007784D03*
D14*
X023222Y009284D03*
X021222Y009284D03*
X021222Y005784D03*
X023222Y005784D03*
D15*
X001222Y002284D03*
X002222Y002284D03*
X003222Y002284D03*
X004222Y002284D03*
X005222Y002284D03*
X006222Y002284D03*
X007222Y002284D03*
X008222Y002284D03*
X009222Y002284D03*
X010222Y002284D03*
X011222Y002284D03*
X012222Y002284D03*
X013222Y002284D03*
X014222Y002284D03*
X015222Y002284D03*
X016222Y002284D03*
X017222Y002284D03*
X018222Y002284D03*
X019222Y002284D03*
X020222Y002284D03*
X021222Y002284D03*
X022222Y002284D03*
X023222Y002284D03*
X023222Y012284D03*
X022222Y012284D03*
X021222Y012284D03*
X020222Y012284D03*
X019222Y012284D03*
X018222Y012284D03*
X017222Y012284D03*
X016222Y012284D03*
X015222Y012284D03*
X014222Y012284D03*
X013222Y012284D03*
X012222Y012284D03*
X011222Y012284D03*
X010222Y012284D03*
X009222Y012284D03*
X008222Y012284D03*
X007222Y012284D03*
X006222Y012284D03*
X005222Y012284D03*
X004222Y012284D03*
X003222Y012284D03*
X002222Y012284D03*
X001222Y012284D03*
D16*
X001472Y005784D03*
X001472Y004784D03*
X020222Y010659D03*
X021222Y010659D03*
M02*
