G75*
G70*
%OFA0B0*%
%FSLAX24Y24*%
%IPPOS*%
%LPD*%
%AMOC8*
5,1,8,0,0,1.08239X$1,22.5*
%
%ADD10OC8,0.0740*%
%ADD11C,0.0396*%
%ADD12R,0.0396X0.0396*%
%ADD13OC8,0.0660*%
%ADD14OC8,0.0480*%
%ADD15C,0.0472*%
%ADD16OC8,0.0760*%
%ADD17C,0.0240*%
%ADD18C,0.0100*%
D10*
X019122Y008284D03*
X020122Y008284D03*
X020222Y009284D03*
X019222Y009284D03*
X019222Y007284D03*
X020222Y007284D03*
D11*
X017722Y011284D03*
X017222Y011284D03*
X016722Y011284D03*
X016222Y011284D03*
X015722Y011284D03*
X015222Y011284D03*
X014722Y011284D03*
X014222Y011284D03*
X013722Y011284D03*
X013222Y011284D03*
X012722Y011284D03*
X012222Y011284D03*
X011722Y011284D03*
X011222Y011284D03*
X010722Y011284D03*
X010222Y011284D03*
X009722Y011284D03*
X009222Y011284D03*
X008722Y011284D03*
X008222Y011284D03*
X007722Y011284D03*
X007222Y011284D03*
X007222Y003284D03*
X007722Y003284D03*
X008222Y003284D03*
X008722Y003284D03*
X009222Y003284D03*
X009722Y003284D03*
X010222Y003284D03*
X010722Y003284D03*
X011222Y003284D03*
X011722Y003284D03*
X012222Y003284D03*
X012722Y003284D03*
X013222Y003284D03*
X013722Y003284D03*
X014222Y003284D03*
X014722Y003284D03*
X015222Y003284D03*
X015722Y003284D03*
X016222Y003284D03*
X016722Y003284D03*
X017222Y003284D03*
X017722Y003284D03*
X006722Y003284D03*
D12*
X006722Y011284D03*
D13*
X021372Y007784D03*
X022222Y007784D03*
X023072Y007784D03*
D14*
X023222Y009284D03*
X021222Y009284D03*
X021222Y005784D03*
X023222Y005784D03*
D15*
X001222Y002284D03*
X002222Y002284D03*
X003222Y002284D03*
X004222Y002284D03*
X005222Y002284D03*
X006222Y002284D03*
X007222Y002284D03*
X008222Y002284D03*
X009222Y002284D03*
X010222Y002284D03*
X011222Y002284D03*
X012222Y002284D03*
X013222Y002284D03*
X014222Y002284D03*
X015222Y002284D03*
X016222Y002284D03*
X017222Y002284D03*
X018222Y002284D03*
X019222Y002284D03*
X020222Y002284D03*
X021222Y002284D03*
X022222Y002284D03*
X023222Y002284D03*
X023222Y012284D03*
X022222Y012284D03*
X021222Y012284D03*
X020222Y012284D03*
X019222Y012284D03*
X018222Y012284D03*
X017222Y012284D03*
X016222Y012284D03*
X015222Y012284D03*
X014222Y012284D03*
X013222Y012284D03*
X012222Y012284D03*
X011222Y012284D03*
X010222Y012284D03*
X009222Y012284D03*
X008222Y012284D03*
X007222Y012284D03*
X006222Y012284D03*
X005222Y012284D03*
X004222Y012284D03*
X003222Y012284D03*
X002222Y012284D03*
X001222Y012284D03*
D16*
X001472Y005784D03*
X001472Y004784D03*
X020222Y010659D03*
X021222Y010659D03*
D17*
X020222Y010659D02*
X020222Y009284D01*
X021222Y009284D01*
X022222Y008284D01*
X022222Y007784D01*
X021372Y007784D02*
X021222Y007634D01*
X021222Y005784D01*
X021222Y004784D01*
X017722Y004784D01*
X017722Y003284D01*
X017722Y004784D02*
X016722Y005784D01*
X007722Y005784D01*
X007222Y006284D01*
X006722Y005784D01*
X001472Y005784D01*
X006722Y006784D02*
X007222Y006284D01*
X006722Y006784D02*
X006722Y011284D01*
X002222Y011284D01*
X001222Y012284D01*
X021222Y004784D02*
X021222Y004284D01*
X023222Y002284D01*
X023222Y005784D02*
X023222Y007634D01*
X023072Y007784D01*
X023072Y009134D01*
X023222Y009284D01*
X023222Y012284D01*
D18*
X020222Y012284D02*
X019597Y011659D01*
X016597Y011659D01*
X016222Y011284D01*
X015847Y011909D02*
X015222Y011284D01*
X015222Y011784D02*
X014722Y011784D01*
X014222Y011284D01*
X013222Y011284D02*
X014222Y012284D01*
X015222Y011784D02*
X015722Y012284D01*
X016222Y012284D01*
X015847Y011909D02*
X017472Y011909D01*
X017847Y012284D01*
X018222Y012284D01*
X012222Y012284D02*
X012222Y011284D01*
X011222Y011284D02*
X010222Y012284D01*
X009597Y011909D02*
X008597Y011909D01*
X008222Y012284D01*
X008222Y011909D02*
X006597Y011909D01*
X006222Y012284D01*
X004847Y011659D02*
X004222Y012284D01*
X004847Y011659D02*
X007847Y011659D01*
X008222Y011284D01*
X008472Y011659D02*
X008222Y011909D01*
X008472Y011659D02*
X008847Y011659D01*
X009222Y011284D01*
X009597Y011909D02*
X010222Y011284D01*
X010222Y003284D02*
X009722Y002784D01*
X009222Y002784D01*
X008722Y002284D01*
X008222Y002284D01*
X008597Y002659D02*
X006847Y002659D01*
X006472Y002284D01*
X006222Y002284D01*
X005222Y002909D02*
X007847Y002909D01*
X008222Y003284D01*
X008597Y002659D02*
X009222Y003284D01*
X010222Y002284D02*
X011222Y003284D01*
X012222Y003284D02*
X012222Y002284D01*
X013222Y003284D02*
X014222Y002284D01*
X014722Y002784D02*
X014222Y003284D01*
X014722Y002784D02*
X015222Y002784D01*
X015722Y002284D01*
X016222Y002284D01*
X015847Y002659D02*
X017347Y002659D01*
X017722Y002284D01*
X018222Y002284D01*
X019597Y002909D02*
X020222Y002284D01*
X019597Y002909D02*
X016597Y002909D01*
X016222Y003284D01*
X015847Y002659D02*
X015222Y003284D01*
X005222Y002909D02*
X004597Y002284D01*
X004222Y002284D01*
M02*
