%
M48
M72
T01C0.0236
T02C0.0315
T03C0.0320
T04C0.0394
T05C0.0400
%
T01
X6722Y3284
X7222Y3284
X7722Y3284
X8222Y3284
X8722Y3284
X9222Y3284
X9722Y3284
X10222Y3284
X10722Y3284
X11222Y3284
X11722Y3284
X12222Y3284
X12722Y3284
X13222Y3284
X13722Y3284
X14222Y3284
X14722Y3284
X15222Y3284
X15722Y3284
X16222Y3284
X16722Y3284
X17222Y3284
X17722Y3284
X17722Y11284
X17222Y11284
X16722Y11284
X16222Y11284
X15722Y11284
X15222Y11284
X14722Y11284
X14222Y11284
X13722Y11284
X13222Y11284
X12722Y11284
X12222Y11284
X11722Y11284
X11222Y11284
X10722Y11284
X10222Y11284
X9722Y11284
X9222Y11284
X8722Y11284
X8222Y11284
X7722Y11284
X7222Y11284
X6722Y11284
T02
X1222Y2284
X2222Y2284
X3222Y2284
X4222Y2284
X5222Y2284
X6222Y2284
X7222Y2284
X8222Y2284
X9222Y2284
X10222Y2284
X11222Y2284
X12222Y2284
X13222Y2284
X14222Y2284
X15222Y2284
X16222Y2284
X17222Y2284
X18222Y2284
X19222Y2284
X20222Y2284
X21222Y2284
X22222Y2284
X23222Y2284
X23222Y12284
X22222Y12284
X21222Y12284
X20222Y12284
X19222Y12284
X18222Y12284
X17222Y12284
X16222Y12284
X15222Y12284
X14222Y12284
X13222Y12284
X12222Y12284
X11222Y12284
X10222Y12284
X9222Y12284
X8222Y12284
X7222Y12284
X6222Y12284
X5222Y12284
X4222Y12284
X3222Y12284
X2222Y12284
X1222Y12284
T03
X21222Y9284
X23222Y9284
X23072Y7784
X22222Y7784
X21372Y7784
X21222Y5784
X23222Y5784
T04
X21222Y10659
X20222Y10659
X1472Y5784
X1472Y4784
T05
X19122Y8284
X20122Y8284
X20222Y9284
X19222Y9284
X19222Y7284
X20222Y7284
M30
