%
M48
M72
T01C0.0236
T02C0.0315
T03C0.0400
%
T01
X5601Y4601
X6101Y4601
X6601Y4601
X7101Y4601
X7601Y4601
X8101Y4601
X8601Y4601
X9101Y4601
X9601Y4601
X10101Y4601
X10601Y4601
X11101Y4601
X11601Y4601
X12101Y4601
X12601Y4601
X13101Y4601
X13601Y4601
X14101Y4601
X14601Y4601
X15101Y4601
X15601Y4601
X16101Y4601
X16601Y4601
X16601Y12601
X16101Y12601
X15601Y12601
X15101Y12601
X14601Y12601
X14101Y12601
X13601Y12601
X13101Y12601
X12601Y12601
X12101Y12601
X11601Y12601
X11101Y12601
X10601Y12601
X10101Y12601
X9601Y12601
X9101Y12601
X8601Y12601
X8101Y12601
X7601Y12601
X7101Y12601
X6601Y12601
X6101Y12601
X5601Y12601
T02
X1101Y1101
X2101Y1101
X3101Y1101
X4101Y1101
X5101Y1101
X6101Y1101
X7101Y1101
X8101Y1101
X9101Y1101
X10101Y1101
X11101Y1101
X12101Y1101
X13101Y1101
X14101Y1101
X15101Y1101
X16101Y1101
X17101Y1101
X18101Y1101
X19101Y1101
X20101Y1101
X21101Y1101
X22101Y1101
X23101Y1101
X23101Y16101
X22101Y16101
X21101Y16101
X20101Y16101
X19101Y16101
X18101Y16101
X17101Y16101
X16101Y16101
X15101Y16101
X14101Y16101
X13101Y16101
X12101Y16101
X11101Y16101
X10101Y16101
X9101Y16101
X8101Y16101
X7101Y16101
X6101Y16101
X5101Y16101
X4101Y16101
X3101Y16101
X2101Y16101
X1101Y16101
T03
X19601Y9601
X20601Y9601
X20501Y8601
X19501Y8601
X19601Y7601
X20601Y7601
M30
