G75*
G70*
%OFA0B0*%
%FSLAX24Y24*%
%IPPOS*%
%LPD*%
%AMOC8*
5,1,8,0,0,1.08239X$1,22.5*
%
%ADD10C,0.0000*%
%ADD11R,0.0394X0.0433*%
%ADD12R,0.0157X0.0236*%
%ADD13R,0.0945X0.0630*%
%ADD14C,0.0740*%
%ADD15C,0.0120*%
%ADD16C,0.0100*%
D10*
X000101Y000101D02*
X000101Y005097D01*
X004971Y005097D01*
X004971Y000101D01*
X000101Y000101D01*
D11*
X004101Y002266D03*
X004101Y002935D03*
D12*
X003494Y003152D03*
X003101Y003152D03*
X002707Y003152D03*
X002707Y002050D03*
X003101Y002050D03*
X003494Y002050D03*
D13*
X003101Y002601D03*
D14*
X001101Y003101D03*
X001101Y004101D03*
X001101Y002101D03*
X001101Y001101D03*
D15*
X002601Y001101D01*
X003101Y001601D01*
X003601Y001601D01*
X004101Y002101D01*
X004101Y002266D01*
X004101Y003101D02*
X003601Y003601D01*
X003101Y003601D01*
X002601Y004101D01*
X001101Y004101D01*
X001152Y003152D02*
X001101Y003101D01*
X001152Y003152D02*
X002707Y003152D01*
X003101Y003152D02*
X003101Y003601D01*
X003101Y002050D02*
X003101Y001601D01*
X002707Y002050D02*
X001152Y002050D01*
X001101Y002101D01*
D16*
X004101Y002935D02*
X004101Y003101D01*
M02*
