G75*
G70*
%OFA0B0*%
%FSLAX24Y24*%
%IPPOS*%
%LPD*%
%AMOC8*
5,1,8,0,0,1.08239X$1,22.5*
%
%ADD10C,0.0050*%
%ADD11C,0.0220*%
%ADD12C,0.0080*%
D10*
X001776Y000571D02*
X001821Y000526D01*
X001911Y000526D01*
X001956Y000571D01*
X001956Y000661D01*
X001866Y000661D01*
X001956Y000751D02*
X001911Y000796D01*
X001821Y000796D01*
X001776Y000751D01*
X001776Y000571D01*
X002070Y000526D02*
X002070Y000796D01*
X002251Y000526D01*
X002251Y000796D01*
X002365Y000796D02*
X002500Y000796D01*
X002545Y000751D01*
X002545Y000571D01*
X002500Y000526D01*
X002365Y000526D01*
X002365Y000796D01*
X002471Y001076D02*
X002426Y001121D01*
X002471Y001076D02*
X002561Y001076D01*
X002606Y001121D01*
X002606Y001166D01*
X002561Y001211D01*
X002471Y001211D01*
X002426Y001256D01*
X002426Y001301D01*
X002471Y001346D01*
X002561Y001346D01*
X002606Y001301D01*
X002720Y001346D02*
X002720Y001076D01*
X002720Y001211D02*
X002901Y001211D01*
X002901Y001346D02*
X002901Y001076D01*
X003105Y001076D02*
X003105Y001346D01*
X003015Y001346D02*
X003195Y001346D01*
X003310Y001301D02*
X003355Y001346D01*
X003445Y001346D01*
X003490Y001301D01*
X003490Y001256D01*
X003310Y001076D01*
X003490Y001076D01*
X003604Y001076D02*
X003784Y001076D01*
X003694Y001076D02*
X003694Y001346D01*
X003604Y001256D01*
X003899Y001256D02*
X003989Y001076D01*
X004079Y001256D01*
X004194Y001301D02*
X004239Y001346D01*
X004329Y001346D01*
X004374Y001301D01*
X004374Y001256D01*
X004194Y001076D01*
X004374Y001076D01*
X004488Y001076D02*
X004623Y001076D01*
X004668Y001121D01*
X004668Y001211D01*
X004623Y001256D01*
X004488Y001256D01*
X004488Y001346D02*
X004488Y001076D01*
X002176Y001521D02*
X002131Y001476D01*
X002176Y001521D02*
X002176Y001611D01*
X002131Y001656D01*
X002086Y001656D01*
X002041Y001611D01*
X002041Y001521D01*
X001996Y001476D01*
X001951Y001476D01*
X001906Y001521D01*
X001906Y001611D01*
X001951Y001656D01*
X001906Y001770D02*
X001906Y001906D01*
X001951Y001951D01*
X002131Y001951D01*
X002176Y001906D01*
X002176Y001770D01*
X001906Y001770D01*
X001996Y002065D02*
X001906Y002155D01*
X001996Y002245D01*
X002176Y002245D01*
X002041Y002245D02*
X002041Y002065D01*
X001996Y002065D02*
X002176Y002065D01*
X002131Y002676D02*
X002176Y002721D01*
X002176Y002811D01*
X002131Y002856D01*
X002086Y002856D01*
X002041Y002811D01*
X002041Y002721D01*
X001996Y002676D01*
X001951Y002676D01*
X001906Y002721D01*
X001906Y002811D01*
X001951Y002856D01*
X001951Y002970D02*
X002131Y002970D01*
X002176Y003015D01*
X002176Y003106D01*
X002131Y003151D01*
X002176Y003265D02*
X001906Y003265D01*
X001951Y003151D02*
X001906Y003106D01*
X001906Y003015D01*
X001951Y002970D01*
X002086Y003265D02*
X001906Y003445D01*
X002041Y003310D02*
X002176Y003445D01*
X002120Y004476D02*
X002256Y004476D01*
X002301Y004521D01*
X002301Y004701D01*
X002256Y004746D01*
X002120Y004746D01*
X002120Y004476D01*
X002006Y004566D02*
X002006Y004746D01*
X002006Y004566D02*
X001916Y004476D01*
X001826Y004566D01*
X001826Y004746D01*
X002415Y004746D02*
X002415Y004476D01*
X002550Y004476D01*
X002595Y004521D01*
X002595Y004701D01*
X002550Y004746D01*
X002415Y004746D01*
D11*
X004089Y002601D02*
X004113Y002601D01*
D12*
X000601Y001351D02*
X000601Y000851D01*
X000851Y000601D01*
X001351Y000601D01*
X001601Y000851D01*
X001601Y001351D01*
X001351Y001601D01*
X001601Y001851D01*
X001601Y002351D01*
X001351Y002601D01*
X001601Y002851D01*
X001601Y003351D01*
X001351Y003601D01*
X001601Y003851D01*
X001601Y004351D01*
X001351Y004601D01*
X000851Y004601D01*
X000601Y004351D01*
X000601Y003851D01*
X000851Y003601D01*
X000601Y003351D01*
X000601Y002851D01*
X000851Y002601D01*
X000601Y002351D01*
X000601Y001851D01*
X000851Y001601D01*
X000601Y001351D01*
X002510Y002010D02*
X002510Y003191D01*
X003691Y003191D02*
X003691Y002010D01*
M02*
