%
M48
M72
T01C0.0276
T02C0.0315
T03C0.0320
T04C0.0354
T05C0.0400
T06C0.0512
T07C0.0591
%
T01
X13209Y18289
X12709Y24289
X13709Y24289
X5209Y22289
T02
X1879Y21895
X1879Y21108
X1879Y20321
X1879Y19533
X1879Y18746
X1879Y22683
X1879Y23470
X1879Y24258
X1879Y25045
X1879Y25832
X10540Y25832
X10540Y25045
X10540Y24258
X10540Y23470
X10540Y22683
X10540Y21895
X10540Y21108
X10540Y20321
X10540Y19533
X10540Y18746
X7709Y9139
X7709Y8289
X7709Y7439
T03
X9709Y7389
X9709Y8189
X11709Y7289
X11709Y9289
X11709Y11289
X10709Y11289
X9709Y11289
X8209Y11789
X8209Y13789
X8709Y15789
X9709Y14289
X10709Y14289
X11709Y14289
X12709Y14289
X13709Y14289
X14709Y14289
X15709Y14289
X16709Y16289
X15209Y17289
X15209Y18289
X15209Y19289
X15209Y20289
X15709Y21789
X16709Y20289
X15709Y25289
X16209Y26289
X13209Y27789
X12209Y27789
X12209Y26289
X11709Y25289
X11209Y27789
X10209Y27789
X11709Y21789
X12209Y20289
X12209Y19289
X12209Y18289
X12209Y17289
X10709Y15789
X12709Y11289
X13709Y11289
X14709Y11289
X15709Y11289
X6209Y20289
X6209Y24289
X3709Y25289
X3709Y21289
T04
X14209Y9289
X14109Y8289
X14209Y7289
X15109Y8289
X15209Y9289
X15209Y7289
T05
X16709Y7289
X16709Y8289
X17209Y11289
X17209Y12289
X17209Y13289
T06
X2709Y7289
X4678Y7289
T07
X5351Y10336
X4603Y11124
X3146Y10336
X2182Y11124
X3146Y14336
X2182Y15124
X4603Y15124
X5351Y14336
X6749Y15124
X6749Y11124
M30
